<svg width="32" height="32" viewBox="0 0 32 32" xmlns="http://www.w3.org/2000/svg">
  <!-- X CLI Favicon -->
  <defs>
    <radialGradient id="faviconGradient" cx="50%" cy="50%" r="50%">
      <stop offset="0%" style="stop-color:#4285f4"/>
      <stop offset="100%" style="stop-color:#1a73e8"/>
    </radialGradient>
  </defs>
  
  <!-- Background circle -->
  <circle cx="16" cy="16" r="15" fill="white" stroke="#e5e7eb" stroke-width="1"/>
  
  <!-- Logo sections (simplified for favicon) -->
  <path d="M16 5 A11 11 0 0 1 23.4 10.3 L19.7 16 A5.5 5.5 0 0 0 16 10.5 Z" fill="#ea4335"/>
  <path d="M23.4 10.3 A11 11 0 0 1 23.4 21.7 L19.7 16 A5.5 5.5 0 0 0 23.4 10.3 Z" fill="#fbbc04"/>
  <path d="M23.4 21.7 A11 11 0 0 1 8.6 21.7 L12.3 16 A5.5 5.5 0 0 0 19.7 16 Z" fill="#34a853"/>
  
  <!-- Center circle -->
  <circle cx="16" cy="16" r="5.5" fill="url(#faviconGradient)"/>
  <circle cx="16" cy="16" r="3.5" fill="white"/>
  
  <!-- X symbol -->
  <g stroke="#1a73e8" stroke-width="1" stroke-linecap="round">
    <line x1="14.5" y1="14.5" x2="17.5" y2="17.5"/>
    <line x1="17.5" y1="14.5" x2="14.5" y2="17.5"/>
  </g>
</svg>