<svg width="100" height="100" viewBox="0 0 100 100" xmlns="http://www.w3.org/2000/svg">
  <!-- X CLI Logo - Black Fill -->
  <g transform="translate(17, 39) scale(2, 2)">
    <path d="M0.00555015 7.77631L9.75248 22H14.085L4.33691 7.77631H0.00555015ZM4.33358 15.6762L0 22H4.3358L6.50092 18.8387L4.33358 15.6762ZM15.076 0L7.58515 10.9308L9.75248 14.0944L19.4118 0H15.076ZM15.8606 6.76374V22H19.4118V1.5818L15.8606 6.76374Z" fill="black"/>
    <path d="M21.0122 7.77826V22H25.348H32.924V18.8387H24.924V10.9328L29.5 10.9308L26.5 7.77631L24.924 7.77826H21.0122ZM30 11.9727V17.4727H33V11.9727H30Z" fill="black"/>
    <path d="M33 7.77631L32.924 10.9328L30 7.77631H33Z" fill="black"/>
  </g>
</svg>